<?xml version="1.0" encoding="UTF-8"?><svg version="1.1" width="454px" height="174px" viewBox="0 0 454.0 174.0" xmlns="http://www.w3.org/2000/svg" xmlns:xlink="http://www.w3.org/1999/xlink"><defs><clipPath id="i0"><path d="M454,0 L454,174 L0,174 L0,0 L454,0 Z"></path></clipPath><clipPath id="i1"><path d="M86.6653539,0 C88.3385486,0 90.4281474,0.444164601 90.4281474,1.76152085 C90.4281474,2.6498539 87.6975342,2.94764516 87.6975342,4.05301401 C87.6975342,4.69655073 88.232551,5.0978134 88.9290827,5.0978134 C90.3600033,5.0978134 92.6035461,3.77793487 93.2167962,3.505378 C94.0344668,3.14196885 94.6098633,2.98550252 95.0287935,2.98550252 C96.5076645,2.98550252 96.0231203,4.94134707 97.3354281,6.57668439 C98.0445789,7.45996903 99.0363795,7.88899222 100.11651,8.17416821 C101.80232,8.61833281 103.707692,8.70666281 105.098233,9.60761499 C107.634522,11.250523 108.045882,14.0366534 108.045882,16.7874526 C108.045882,23.1647687 106.281835,28.3105325 106.281835,35.3036248 C106.281835,37.5496899 106.35502,39.8613729 106.35502,42.1150087 C106.35502,43.6746351 106.319688,45.2065049 106.198553,46.6752829 C105.797291,51.5611089 105.340507,56.4444126 104.855963,61.3251902 C104.558171,64.3435017 104.247761,67.4324756 104.136719,70.4962113 C104.096339,71.6369114 104.421891,72.2501615 104.924103,72.2501615 C105.307702,72.2501615 105.794768,71.894323 106.29698,71.1422703 C107.838943,68.838158 109.004877,66.2539182 110.501412,63.952332 C111.914669,61.7769294 113.396062,59.8589384 114.37777,57.4463101 C114.81689,56.3661795 115.712794,52.7800422 117.037721,52.7800422 C118.029521,52.7800422 118.231416,53.8475537 119.351926,53.8475537 C119.722906,53.8475537 119.960132,53.6153765 119.960132,53.292347 C119.960132,51.780667 117.951288,52.3939171 117.915957,50.5617338 C117.893245,49.40337 119.606815,47.9522595 120.197353,46.983171 C120.911552,45.8147104 121.221963,44.5604459 121.855403,43.356654 C122.39042,42.3396152 122.827014,42.107438 123.195471,42.107438 C123.478121,42.107438 123.836482,42.2411922 124.146892,42.2411922 C124.548155,42.2411922 125.075601,42.0064927 125.075601,41.3099611 C125.075601,40.6210001 124.485063,39.9698927 124.485063,39.1825088 C124.485063,38.6449658 124.6491,38.1755629 125.267398,37.2493763 C126.3551,35.6165613 127.170244,33.8878456 127.937438,32.5275874 C128.775299,31.043668 129.555112,29.9988686 130.56458,29.9988686 C131.493289,29.9988686 131.591712,30.4657491 132.631463,30.4657491 C133.116007,30.4657491 133.67374,30.2689032 133.67374,29.8272608 C133.67374,28.865743 132.343765,28.5124307 132.343765,27.2354541 C132.343765,24.8985367 134.877528,22.8720297 136.366492,20.8430004 C137.741892,18.9679152 139.773447,15.515536 139.773447,13.1382389 C139.773447,12.4189913 139.639693,11.977349 139.622025,11.5836571 C139.601835,11.1748237 139.720448,10.8215114 140.293323,10.2688269 C141.340644,9.26188108 143.538763,9.03475228 144.921733,8.78995595 C148.189885,8.21203713 150.98359,8.42907293 154.299693,8.42907293 C156.492763,8.42907293 158.875109,8.46440416 160.573538,8.73443874 C162.236636,8.9994249 163.816452,9.48649144 165.608259,10.3849175 C168.17988,11.6719909 170.269479,11.3969118 170.269479,12.2902894 C170.269479,12.8631636 169.744555,13.0827217 169.032878,13.1912377 C167.508583,13.4259372 165.126238,13.1533803 165.206997,14.771054 C165.234757,15.3716888 166.05495,15.5357258 166.971044,15.5357258 C167.914898,15.5357258 168.959697,15.3615919 169.338248,15.3161677 C170.486519,15.1798912 171.892205,14.8543394 173.184323,14.8543394 C174.776758,14.8543394 176.63418,16.3054499 176.63418,18.3319569 C176.63418,19.3664986 175.414058,20.6401296 174.105173,21.8702578 L173.667142,22.2783017 C172.863749,23.0220069 172.074153,23.7377395 171.556556,24.3610053 C170.001974,26.2285198 168.500391,28.1212726 167.08966,30.0846878 C165.815206,31.8563055 164.618985,33.6809181 163.526235,35.5938607 C163.205728,36.1490675 162.420866,37.0399228 161.842948,37.8676864 C161.151461,38.8569647 160.651775,39.7604392 160.131899,39.9068125 C159.826534,39.9926164 159.339467,39.9421437 158.945775,39.9926164 C158.597507,40.0355183 158.32495,40.1591795 158.32495,40.5276371 C158.32495,41.2569777 159.124954,41.4689651 159.124954,42.4178638 C159.124954,44.0809616 156.762798,46.5263988 155.42273,48.3081095 C154.781719,49.1611113 154.299697,50.3598548 153.694018,51.1447164 C153.312945,51.6368314 152.770357,51.8765793 152.427138,52.3156993 C151.440382,53.5800568 150.983598,55.4500974 150.163405,56.9642997 C148.205038,60.5882905 145.620799,64.0406697 143.851707,67.7403714 C143.569057,68.3309094 142.796815,70.5340725 141.640973,70.5340725 C141.032768,70.5340725 141.451698,68.9264957 140.825829,68.9264957 C140.265574,68.9264957 138.988597,70.430605 138.988597,71.4955942 C138.988597,71.7908632 139.10721,71.9044276 139.288914,71.9044276 C139.758317,71.9044276 140.129297,71.614207 140.53056,71.6192554 C140.858638,71.6243038 141.108482,71.8085307 141.108482,72.4495413 C141.103434,74.3498648 138.867462,76.2729004 137.953894,77.7568198 C136.707201,79.7808045 136.172184,82.1328672 135.145048,84.2653679 C134.122961,86.3928201 132.828317,88.3789475 131.586671,90.3802163 C131.119791,91.1347951 130.698338,92.0483625 130.054801,92.6792801 C129.148805,93.565087 128.083816,93.565087 127.117249,94.2490034 C123.831429,96.5707794 122.256658,102.675539 120.580941,106.140537 C118.130455,111.208068 115.649687,116.262979 113.401095,121.421362 C111.306448,126.226429 109.661014,131.132444 107.086871,135.710382 C106.387813,136.957076 105.89065,138.234053 105.484339,139.523648 C104.527869,142.574765 104.086227,145.706641 102.703257,148.709807 C101.315238,151.72307 97.1562304,154.365353 94.3347688,154.365353 C91.3240511,154.370409 89.8300387,153.21709 86.5845984,152.333806 C86.0167726,152.179231 85.433647,152.041376 84.8472485,151.907937 L83.6736512,151.643302 C82.307678,151.332926 80.9675388,151.00194 79.8060196,150.494052 C78.3549092,149.858086 77.5877151,148.639152 77.4867698,147.51612 C76.3208353,147.266275 75.1826614,146.849871 74.1328136,146.302235 C71.081697,144.712322 68.7775847,142.024614 68.7775847,139.124916 C68.7775847,137.277587 69.2343684,135.410073 69.7895751,133.570319 C70.3220697,131.796179 70.9454166,130.049799 71.3290156,128.379131 C72.5075692,123.245986 72.3435322,118.201168 72.7548917,113.030166 C72.9365963,110.710912 73.0224001,108.308377 73.3530003,106.011835 C73.6205088,104.164506 74.2640455,102.102668 74.2640455,100.717172 C74.2640455,99.4124347 73.9132555,98.5998125 73.9132555,97.6988604 C73.9132555,95.9777153 74.6602636,95.5436437 74.6602636,94.1682441 C74.6602636,93.2925302 74.2539525,92.0836938 74.2539525,90.2262722 C74.2539525,88.0887231 74.4836074,86.1656875 74.5416508,84.0735664 C74.5946496,82.1202442 75.1094766,80.1568289 75.1094766,78.2035067 C75.1094766,76.0407193 74.708214,74.1732048 74.708214,72.0709869 C74.708214,70.253945 75.1170473,69.3933724 75.1119989,67.7126071 C75.1069505,65.2343609 73.9612058,64.3384571 73.04259,64.3384571 C72.0381702,64.3384571 70.9529912,65.2722144 70.3044061,66.4305782 C69.9409969,67.0766372 69.7138681,67.7933587 69.7138681,68.4545591 C70.8116663,68.4545591 70.8369045,66.0823104 71.7630911,66.0823104 C72.4192469,66.0823104 72.6766624,67.0791595 72.6766624,68.0835792 C72.6766624,68.8936791 72.3813934,69.5649763 71.9927499,70.0167116 C70.9454282,71.2255481 69.9485792,71.2962105 69.3757049,71.9725523 C68.9996766,72.4192431 68.8558256,73.4766616 68.0633932,73.4766616 C67.5081865,73.4766616 67.3744323,72.6842292 66.7182765,72.6741362 C66.8419377,73.0930664 67.0514028,73.953639 67.0715926,74.7258815 C67.0943047,75.5258845 66.9100779,76.2274646 66.2135462,76.2274646 C65.6760032,76.2274646 65.6810516,75.1195735 65.0854653,75.1195735 C64.5706382,75.1195735 64.043192,76.1416607 64.043192,77.1410359 C64.043192,78.0571295 64.338461,78.9706969 64.338461,79.4981431 C64.338461,80.275434 64.2450864,81.0602957 63.7857766,81.9309612 C63.1725265,83.0943734 61.8425511,85.5675711 60.931506,86.49628 C60.0204608,87.4249888 59.364305,87.5612653 58.8923798,88.2880836 C58.3497923,89.1259441 58.5264484,90.4458226 57.9232913,91.4149111 C57.7516836,91.687468 57.5220287,91.9751662 57.1989992,92.290625 C56.2829056,93.1865288 53.8046594,94.5770698 53.8046594,95.3770728 C53.8046594,96.0685599 55.1851074,95.8893776 55.1851074,96.9417477 C55.1851074,98.0925408 54.0898354,99.9045342 52.8709022,100.956904 C51.5863549,102.064795 50.1251514,102.784043 49.0223087,104.076161 C46.2916955,107.273651 45.0399533,112.179667 43.3440465,115.965172 C41.3831535,120.331123 38.9049074,124.257953 37.2342388,128.762707 C35.7048952,132.883861 33.7011003,136.793028 31.8335857,140.767808 C30.0695387,144.520505 27.9067514,147.220832 22.9048348,147.220832 C19.8335284,147.220832 16.7243647,146.178554 14.0644178,144.457409 C11.3968964,142.73122 9.18111407,140.32364 7.90161134,137.598075 C6.97542478,135.622041 6.19308542,134.355157 4.10600894,133.590485 C3.25553325,133.277549 0,132.840955 0,131.273754 C0,129.557657 3.67698959,126.357645 4.613273,125.100858 C6.52116719,122.544379 5.81706485,120.189794 6.92747827,117.464229 C7.59120482,115.844033 8.70666666,114.438347 9.27701478,112.772723 C10.0416866,110.5418 10.1300166,108.580907 11.4145639,106.516546 C12.4871238,104.792879 13.6278239,103.228204 14.6322436,101.59034 C15.5760977,100.053426 16.3988129,98.4508938 16.9338298,96.5934722 C17.4814658,94.6931488 18.2915657,93.3808409 19.2581319,92.16443 C20.1893669,90.9934471 21.2644491,89.9133164 22.3874816,88.4849181 C23.6089372,86.9328623 23.2303866,85.9082528 24.0404865,84.1921561 C24.7016869,82.7915183 26.0644674,81.9031853 26.9023278,80.6590176 C27.8739424,79.2205263 27.8436596,77.5044296 28.7143251,75.9977981 C29.6531308,74.3725538 31.2884681,73.027437 32.2373668,71.3643391 C33.1256999,69.807235 33.7894264,68.3536022 34.1275973,66.5996521 C34.364823,65.3580067 34.5414791,64.8154191 34.8670309,64.4040596 C35.7376964,63.3062615 37.0651456,63.3062615 37.7995346,62.2084633 C38.8519047,60.6362177 38.4582128,58.7636548 39.2329814,57.6254808 C39.9295131,56.6033936 40.6866142,56.8784727 41.615323,55.6242082 C42.1478176,54.9049606 42.2740011,53.7087395 42.6172205,52.8809759 C43.1699049,51.5560489 43.861392,50.3623539 44.7825301,49.2544628 C46.6399517,47.0235391 48.5226115,44.6109108 50.0645742,42.1427615 C52.2551183,38.6399058 54.1932953,34.8594486 56.1516621,31.2203164 C57.080371,29.4941268 58.1075066,28.5048485 59.4702871,27.1244005 C60.7926918,25.7843321 61.1460041,24.3433146 62.0116212,22.7079773 C62.4785017,21.8246927 62.9327632,20.7521328 63.8993294,20.3988204 C64.3233042,20.2423541 64.7169961,20.2171159 65.0122651,20.1868331 C65.3252016,20.1515018 65.5245699,20.1111222 65.5245699,19.8991348 C65.5245699,19.5332034 64.8330828,19.5988174 64.8330828,18.9275201 C64.8330828,18.301651 65.1586346,17.9483387 65.6633687,17.2089051 C68.6009208,12.9009979 72.6716024,10.2915237 72.6716024,7.80066222 C72.6716024,6.80128705 72.1820097,5.81957943 72.1820097,4.90601198 C72.1820097,2.97540568 74.584545,2.72808706 75.8489025,2.31168299 C79.5057023,1.10789114 83.172595,0 86.6653539,0 Z M82.2035104,76.4167553 C81.9360019,76.4167553 81.5397838,77.0148639 81.4136003,78.6300114 C81.1132829,82.4558967 80.5605985,85.9284657 80.2552327,89.7593955 C79.864063,94.6755043 79.6520756,99.6698463 79.6520756,104.611193 C79.6520756,109.996705 79.0615377,114.87496 78.5492329,120.124196 C78.5001607,120.627527 78.3007592,123.291557 78.1332068,126.044816 L78.093699,126.70625 C77.9775698,128.68933 77.8855063,130.632758 77.8855063,131.763362 C77.8855063,133.085767 78.286769,133.358327 78.4861373,133.358327 L78.484,133.358 L78.5728911,133.347031 C79.6684906,133.070557 80.5625113,127.800286 80.7722391,126.488023 L80.787735,126.390473 C81.6811126,120.750069 81.2621824,114.710927 81.6811126,109.002386 C81.8047738,107.311528 81.9940491,103.43517 82.0596631,100.131686 C82.0924721,98.4408278 81.6634489,96.8635338 81.6634489,95.2080066 C81.6634489,92.2326009 82.6754393,89.1537238 82.879856,86.1480315 C83.0262294,84.0104824 83.0867988,81.8603141 83.0817504,79.7177166 C83.0817504,78.0924723 82.6855323,76.4167553 82.2035104,76.4167553 Z M161.267578,19.6013705 C159.283973,19.6013705 158.211413,23.0007548 157.393742,24.5376691 C155.85262,27.4297958 153.978374,30.1043257 152.061132,32.7511891 L150.907948,34.3375066 C150.331097,35.1305248 149.755599,35.9244717 149.189288,36.7244756 C146.191166,40.9617164 143.788631,45.5018008 141.232151,50.006554 C138.637818,54.5794435 135.518562,58.857064 133.098363,63.5283765 C132.068705,65.5145039 131.440309,67.6444823 130.498981,69.6659409 C129.545034,71.7202084 128.083831,73.380784 126.811903,75.2331571 C125.497069,77.1435774 124.994857,79.165036 123.977818,81.2092106 C123.155103,82.8596893 121.923551,84.2628494 121.020076,85.8653816 C120.770231,86.3095463 118.615019,89.9385855 118.615019,91.2786538 C118.615019,91.5865419 118.703349,91.7732949 118.955716,91.7732949 C120.114087,91.7707649 121.080653,89.4515113 121.580339,88.4546622 C121.951319,87.7127025 122.239017,86.6401426 122.847223,86.0445562 C123.192964,85.7013369 124.030825,85.7265752 124.444706,85.1814614 C124.664265,84.8887147 124.709689,84.5505438 124.709689,84.1921831 C124.709689,83.0287709 124.904012,82.3347616 125.529882,81.759365 C126.334933,81.0199314 127.493297,80.4748177 127.957651,79.4073062 C128.929266,77.1789048 128.742513,75.0867838 130.097723,72.9063327 C131.42265,70.7788804 133.010037,69.1460654 134.837175,67.4753968 C135.359577,66.9984233 136.528038,66.3851732 136.528038,65.5977893 C136.528038,64.8230206 135.493331,64.7750703 135.493331,63.8438353 C135.493331,63.0816858 136.351378,62.6476142 137.550121,61.999029 C139.251076,61.0778909 140.19493,59.7504416 141.25992,57.9990138 C141.794936,57.1157291 141.890837,56.499953 141.890837,56.0633591 C141.890837,55.4753434 141.166545,55.4450606 141.166545,54.7636704 C141.166545,53.1611381 144.023342,50.584469 145.118614,49.0147457 C146.011991,47.7402914 147.690231,46.1730904 147.690231,44.8304959 C147.690231,44.5427976 147.523667,44.0380635 147.808843,43.6948442 C148.000641,43.4651893 148.265627,43.4424772 148.538184,43.4424772 C149.128722,43.4424772 149.752069,43.5459486 149.752069,41.9308011 C149.752069,40.2020853 150.287086,39.3389905 150.872579,38.8115443 C151.412644,38.3244778 151.993089,38.1251095 152.232837,37.7919832 C152.70224,37.1459242 152.505394,36.3585403 152.505394,35.8033336 C152.505394,35.0109012 152.989938,34.1074268 153.557764,33.1787179 C154.612657,31.4500021 156.538218,29.4588264 158.489014,28.7017253 C158.087752,28.4089786 157.921189,28.0228573 157.921189,27.5736443 C157.921189,25.653131 161.931301,23.3944468 161.931301,20.5830781 C161.931301,19.9092586 161.865687,19.6013705 161.267578,19.6013705 Z M73.8577267,42.0973642 C72.7599286,42.0973642 71.2280588,44.0431158 69.7618069,46.3977007 C67.8690541,49.4437727 66.082295,53.171235 65.4766157,54.2715554 C62.6299158,59.4274121 59.9093994,64.6640282 56.8961364,69.7189396 C54.9554333,72.9719506 53.1863417,75.1221188 50.5188203,79.7278173 C48.7320612,82.8117428 47.2683316,85.8022937 47.2683316,87.3669686 C47.2683316,88.2199704 47.6014579,88.6590905 47.9497257,88.6590905 C48.2147118,88.6641312 48.4872687,88.4193348 48.6285936,87.917123 C48.9112435,86.9278447 49.2544628,85.3682183 49.5774923,84.6338293 C50.4961082,82.5518012 52.5756139,81.3025851 53.4942298,79.2205571 C55.5838286,74.4710076 58.9024536,69.6533217 61.7945815,65.2318502 C63.0337046,63.3365751 63.1977416,61.5170071 64.2879691,59.631825 C64.9643109,58.4633644 66.4229921,58.1050036 67.134669,57.0602042 C67.7580159,56.1390661 67.7580159,55.2759713 68.0179536,54.6955263 C68.6009208,53.3857408 69.7693815,51.6242199 71.1523518,48.9264157 C72.6186036,46.0645744 74.0066223,43.0386922 73.8577267,42.0973642 Z M121.413776,70.2564788 C119.917241,70.2564788 118.930485,71.5713128 118.208715,73.2899317 C117.158867,75.7833193 116.666752,79.1196118 115.985362,80.5101528 C115.662333,81.1688309 111.937397,86.1328901 111.937397,87.7354223 C111.937397,88.0433104 112.040868,88.2224927 112.358849,88.2224927 C113.550014,88.2224927 114.874941,84.6338293 115.420055,83.8161587 C116.308388,82.4912317 116.79041,81.4943827 117.16139,79.9549422 C117.358236,79.1423201 117.603032,78.3725998 118.135527,77.7189701 C119.197994,76.4117107 119.604305,76.3359998 120.298314,74.5366216 C120.51882,73.9659568 120.600208,73.4432024 120.664784,72.9294979 L120.728285,72.4173706 C120.81756,71.7347183 120.949421,71.0451258 121.413776,70.2564788 Z M43.2885177,79.3290692 C42.3976624,79.3290692 41.900499,80.1694519 41.900499,80.8962702 C41.900499,81.4514769 42.1881973,81.9435919 42.8090219,81.9435919 L42.808,81.943 L42.9666643,81.9360429 C43.795757,81.8563863 44.2233881,81.1602472 44.2708288,80.5122961 L44.2752738,80.3915323 C44.2752738,79.8287549 43.9345767,79.3290692 43.2885177,79.3290692 Z M47.6292223,70.8772957 C46.0443576,70.8772957 44.6588612,73.4009661 44.6588612,75.4804719 C44.6588612,76.5151783 45.4159623,77.4035113 45.7339434,77.5625038 C45.8247957,76.5479795 45.9131257,75.4173763 47.0210168,73.9561728 C47.7957855,72.9340855 48.1869552,72.1542723 48.1869552,71.5914949 C48.1869552,71.164994 47.9976799,70.8772957 47.6292223,70.8772957 Z M124.631452,64.2602432 C123.614413,64.290526 122.526712,67.0488959 122.589803,68.5782395 C122.612515,69.1637329 122.806839,69.5675217 123.240911,69.5675217 C124.126721,69.5675217 125.600544,66.9605698 125.600544,65.1510986 C125.600544,64.6034625 125.295178,64.2400534 124.631452,64.2602432 Z M52.3964355,62.2387808 C50.5163018,63.3189114 48.3585629,66.2791757 48.3585629,68.0205067 C48.3585629,68.8078906 48.7169236,69.3454375 49.7314402,69.3454375 C51.4879165,69.3454375 52.5175744,66.556781 52.6816115,64.4040904 C52.7547962,63.467807 52.6614217,62.6526626 52.3964355,62.2387808 Z M128.278155,58.581981 C126.912848,58.581981 125.999281,60.5176357 126.006851,61.6330976 C126.006851,62.0823106 126.160795,62.3952471 126.493922,62.3952471 C127.427679,62.3952471 128.891409,60.65139 128.891409,59.2356107 C128.891409,58.8469672 128.724845,58.581981 128.278155,58.581981 Z M72.8280649,28.4215938 C71.9801115,28.4215938 71.1397288,29.5168659 70.8469821,30.1301159 C70.2211129,31.4373753 70.4331003,32.6411672 69.8854643,33.6304455 C69.2797849,34.7257175 67.9750478,35.137077 67.0841925,36.0228839 C66.2311907,36.8733596 65.4867087,37.8803055 64.8128891,38.9654845 C63.2709264,41.4513014 62.1049919,44.3535223 60.8658688,46.771199 C58.9630231,50.4835198 56.103704,53.771862 54.3548023,57.5195141 C53.8727804,58.5542205 53.6456516,59.4122669 53.6380809,60.0684227 C53.6279879,60.9113277 53.9787779,61.4261548 54.6147439,61.5674797 C55.0462817,59.159896 55.9245179,58.776297 57.5548107,57.1232921 C59.1396754,55.5157153 60.2627079,53.3049815 61.4084526,51.371849 C62.3901602,49.7163219 63.5157189,47.4980173 64.6362291,45.2292363 C65.9510631,42.5718117 67.2608486,39.8462469 68.3409793,37.8702125 C68.9012344,36.8430768 69.2646435,36.4569556 69.6230043,36.4569556 C69.7618069,36.4569556 69.8980834,36.5124766 70.046979,36.6108996 C71.0640179,35.2910211 72.0583446,33.5496901 72.7876852,32.0506292 C73.0526714,31.5080416 73.673496,30.2108752 73.673496,29.3225422 C73.673496,28.8026667 73.4589825,28.4215938 72.8280649,28.4215938 Z M142.178528,35.3970225 C141.85802,35.4020709 141.39114,35.667057 140.805647,36.2374052 C137.900903,39.0714859 136.106574,43.5585716 134.234011,47.1144222 C133.696468,48.1365095 129.958912,55.4021548 129.898343,57.3453802 C130.804249,57.3479102 131.076833,56.5786494 131.305845,55.7385129 L131.385824,55.4401884 C131.479262,55.0913631 131.577077,54.7444517 131.720441,54.4482116 C132.073753,53.718871 133.189215,53.3832223 133.550098,51.7655487 C133.981647,49.8374647 134.433383,49.9560775 135.652316,48.3661644 C136.626453,47.0917101 136.4397,46.0898126 137.60816,44.8633087 C139.447914,42.9327024 141.401237,40.0834802 142.357706,37.484099 C142.57979,36.8809419 142.675691,36.3913492 142.663072,36.0405592 C142.647931,35.621629 142.478845,35.3970225 142.178528,35.3970225 Z M145.741945,29.2922594 C144.502822,29.2922594 143.079472,32.5831238 143.079472,33.4487409 C143.079472,33.6632544 143.119852,33.7894418 143.235942,33.7894418 C144.565918,33.7894418 146.572235,31.7200329 146.572235,30.1805924 C146.572235,29.6506201 146.314819,29.2922594 145.741945,29.2922594 Z M148.984875,24.0480688 C147.909793,24.0480688 146.892754,26.8417737 146.902847,27.8007692 C147.763419,27.7124392 149.704122,25.9837235 149.731883,24.8152629 C149.741976,24.335767 149.464371,24.0480688 148.984875,24.0480688 Z M152.05953,21.5278412 C152.269726,21.1706192 152.703288,20.4274522 152.714855,19.8814981 C152.722426,19.5483717 152.518009,19.2682441 152.210121,19.2682441 C151.79624,19.2682441 151.238507,19.8789719 150.769104,20.6234539 C150.26437,21.423457 149.865629,22.3799263 149.865629,22.9073725 C149.865629,23.1546911 149.953959,23.3061168 150.155854,23.3061168 C150.937094,23.3061168 151.846187,21.8806483 151.99538,21.6365579 L152.011,21.609 Z M154.057446,16.757189 C153.714227,16.757189 153.219586,17.3603461 153.224634,17.7792763 C153.224634,18.0013605 153.368485,18.1729683 153.752084,18.1729683 C154.201297,18.1729683 154.554609,17.6455221 154.554609,17.2366887 C154.554609,16.9717026 154.410758,16.757189 154.057446,16.757189 Z"></path></clipPath><clipPath id="i2"><path d="M119.556362,0 C121.348169,0 123.076885,0.194323697 124.954497,0.383598976 C125.855449,0.474451264 126.763972,0.441642316 127.657349,0.514827063 C128.333691,0.57034812 128.997418,0.686438651 129.640954,0.958995515 C130.122976,1.16593833 130.887648,1.56467872 131.60437,2.02651086 C132.404373,2.53881564 133.146332,3.12935358 133.38608,3.61642012 C133.532454,3.91673751 133.575356,4.21957718 133.575356,4.50727545 C133.575356,5.07762357 133.494596,5.57226466 133.661159,5.90034258 C133.797436,6.16532874 134.097753,6.32179507 134.74129,6.32179507 C135.172839,6.32179507 135.430255,5.33503903 135.770952,5.32241991 C136.05865,5.32241991 136.396821,5.68835134 136.649188,5.78172591 C137.603135,6.13503823 138.221434,6.30664596 138.81702,6.6650067 C139.551409,7.10664901 140.462454,7.85870171 141.259935,8.69656212 C141.996846,9.47385306 142.637857,10.3293772 142.940696,11.0814299 C143.132494,11.553355 143.152684,12.0429477 143.185493,12.5325403 C143.215776,13.0095139 143.258678,13.4839651 143.478236,13.9407489 C143.710413,14.4252931 144.722403,15.3842886 144.722403,15.8738813 C144.722403,16.2398127 144.323663,16.3685185 143.758359,16.4341326 C143.135012,16.4543224 142.476334,16.4846052 142.476334,16.9111061 C142.476334,17.43603 143.748263,18.0492801 143.748263,18.7836691 C143.748263,19.0764158 143.230909,19.3363535 142.360244,19.3363535 C141.545099,19.3363535 140.634054,19.013324 139.851715,19.013324 C138.847295,19.013324 138.309752,19.692192 137.328044,20.2044967 C135.680088,21.0625431 134.208788,22.2360483 132.321083,22.6600231 C130.085111,23.1647572 127.786047,23.19504 125.545027,23.7376276 C120.013142,25.0802221 114.670532,26.8568843 109.045273,27.8461626 C103.059126,28.8985327 97.078028,29.7490084 91.2029237,31.3464922 C89.2571722,31.8739384 87.1877632,32.3206292 85.1839683,32.9313569 C82.77134,33.6682682 80.4546125,34.6474535 78.564382,36.3004584 C76.6665808,37.961034 75.5788795,40.1869131 74.2640455,42.289131 C72.9264994,44.4266801 71.3214449,46.3194329 69.7365802,48.270229 C68.1189066,50.2588825 66.8646421,52.5352343 65.1939735,54.4759374 C63.4879737,56.4595425 61.3150934,57.910653 59.7655599,60.0456798 C58.824232,61.3453685 56.7295848,64.2122582 56.7295848,65.8501217 C56.7295848,66.5946037 57.1106576,67.0942893 58.2059296,67.0942893 C60.1769156,67.0942893 62.9403339,65.8475955 65.7037522,65.1157327 C68.3939857,64.4015335 70.3548787,63.7100464 73.1359645,63.4627278 C74.236285,63.3643048 75.321464,63.3087838 76.3915016,63.3087838 C78.1782607,63.3087838 79.9296886,63.4627278 81.6331661,63.8286592 C83.922137,64.3233003 86.1253001,65.2015365 88.2249957,66.6046967 C90.3373066,68.0179536 91.2458295,69.6886222 92.8483617,71.5107125 C93.5953699,72.3611882 94.4206111,73.0577198 94.9833886,73.8223916 C95.3972703,74.385169 95.6698272,74.9807554 95.6698272,75.700003 C95.6698272,76.2274492 95.2534231,76.5555271 95.2534231,77.0728803 C95.2534231,77.4665723 95.9777153,77.9586872 95.9777153,78.6602673 C95.9777153,79.3769888 95.8691993,79.9725751 95.2862321,80.5782545 C95.0742438,80.7980949 94.8258651,80.9002887 94.5683473,80.9805482 L94.1786226,81.0964507 C93.9837396,81.1581406 93.7913802,81.2344116 93.6130412,81.3656422 C92.9139835,81.8829954 92.6035731,82.7082367 91.7959993,83.2003517 C91.0265606,83.6694739 90.1930023,83.9263897 89.3463819,84.1515854 L88.6186993,84.3410518 C87.5234272,84.62875 86.4331998,84.9467311 85.4666336,85.6836424 C83.4880769,87.1902739 81.8905931,88.0533687 79.4855355,88.8685132 C77.1435697,89.6634678 74.8470281,90.4912314 72.545442,91.2887122 C69.7694046,92.2527561 66.9908449,93.171372 64.1264774,93.9410922 C61.3352986,94.6881003 58.6602065,95.9297457 55.9598799,97.0881095 C53.4261166,98.1758108 48.6311429,99.8010551 46.5339734,99.8010551 C44.6866448,99.8010551 42.8847443,99.2660383 41.2721191,98.2919013 C40.0885171,97.5751799 39.0083865,96.3385829 37.655699,96.3385829 C36.7749366,96.3385829 36.1011171,96.7903182 35.5534811,97.4414256 C34.687864,98.4660352 34.140228,99.9852858 33.602685,101.004847 C32.4317021,103.230726 31.1875344,105.406129 29.7995157,107.503298 C28.6461965,109.242107 27.4499754,111.099529 26.4783607,113.047802 C25.2695243,115.47305 24.4089518,118.039622 24.4089518,120.702095 C24.4089518,122.882546 25.4032785,123.566462 26.8190578,123.566462 C28.9944604,123.566462 31.9244419,122.034593 33.9761871,121.671184 C34.5313938,121.572761 35.0512693,121.537429 35.540862,121.529859 C36.1894471,121.522288 36.7900819,121.560141 37.36043,121.560141 C38.7787315,121.560141 40.1869401,121.509669 41.4992479,120.936795 C43.7579321,119.950039 45.8980035,119.147513 48.3131579,118.450982 C53.9762749,116.823215 59.619202,115.069265 65.1813698,113.128562 C70.7107325,111.197955 76.1290532,108.934223 81.5473738,106.71844 C84.442024,105.534838 87.2634856,104.366378 90.3196506,103.420001 C92.3108264,102.801703 94.6881234,101.729143 96.797912,101.729143 C98.1480772,101.729143 101.956295,102.905174 103.202989,103.88436 C104.72981,105.080581 104.974606,107.470497 105.262305,109.254734 C105.552525,111.071776 105.168926,112.724781 106.425713,113.973997 C107.114674,114.657913 107.854107,115.17274 108.424456,115.798609 C109.004901,116.437098 109.408689,117.18915 109.408689,118.35004 C109.408689,120.651626 107.753162,120.969607 105.807411,121.779707 C103.682481,122.662992 102.314652,124.005586 100.366378,125.244709 C98.6881387,126.312221 96.9897096,127.425161 95.5537405,128.808131 C94.8092585,129.52233 93.8351216,130.165867 93.8351216,130.978489 C93.8351216,131.538744 94.2414327,131.773444 94.2414327,132.255465 C94.2414327,133.136228 93.204204,133.714147 91.9045153,134.158311 C90.2969385,134.710996 88.2880952,135.059263 87.3720016,135.528666 C84.9593734,136.765263 82.5391744,137.984196 80.1164493,139.200607 C77.4918336,140.517964 74.8066485,141.595572 72.0937028,142.602518 C69.4564681,143.581703 66.793995,144.492748 64.131522,145.492124 C61.1889214,146.594966 58.4103617,147.690238 55.576281,148.459959 C53.1712234,149.113588 50.7257862,149.529992 48.1087412,149.512325 C46.397693,149.502232 44.4822281,149.787408 41.3503523,150.287093 C38.4607505,150.748926 35.4676772,151.445457 33.1358044,151.445457 C28.9061227,151.447987 24.451846,147.982989 20.408925,146.796865 C17.7817832,146.027144 15.7098481,145.794967 14.1628369,144.631555 C13.1710363,143.887073 12.3912231,142.758992 11.820875,140.861191 C11.3413792,139.263707 10.9022591,138.009442 9.78679728,136.752656 C8.81770877,135.662428 7.89404449,135.059271 7.46754358,133.550117 C7.19498672,132.593648 7.15460707,131.566512 7.00823372,130.584805 C6.89719161,129.857986 6.72810616,129.156406 6.36469701,128.525489 C5.78172976,127.526113 5.12557393,127.240938 4.50474932,127.240938 C3.83092979,127.240938 3.40190659,127.753242 2.81136865,127.753242 C1.77666225,127.753242 1.0977943,126.796773 0.66877111,125.360804 C0.164037034,123.674994 0,121.330506 0,119.109675 C0,115.869283 0.365931435,112.691983 0.577918823,111.548761 C1.33501994,107.483128 2.67003987,103.485635 4.2650014,99.589087 C5.70349275,96.0635192 7.35397148,92.6212329 8.97668969,89.2748474 C10.8391597,85.4388692 12.8076233,81.5801789 14.9174119,77.8072924 C16.7546436,74.5214725 18.6953468,71.3012705 20.7647557,68.2148227 C22.6751761,65.3681228 24.3206102,62.5239452 25.9660444,59.684816 C27.7502812,56.6034128 29.5294696,53.5220096 31.6367359,50.4406064 C33.5446301,47.6519498 35.7427487,46.1932686 37.653169,43.2380489 C38.3926026,42.0973488 38.9049074,41.1257342 38.9049074,40.6336193 C38.9049074,39.6872429 38.463265,39.2481228 37.5925995,38.4127885 C36.7471684,37.6026887 35.4828109,36.3913261 34.7787086,35.8916405 C33.807094,35.2026795 33.4108759,34.9578832 33.1736502,34.4556714 C32.9894234,34.0670278 32.9036195,33.5244403 32.7143442,32.4973046 C32.4443096,31.0209558 32.0884712,30.2032853 31.4424122,28.9061188 C30.6979302,27.4121064 29.3326236,25.0171419 29.3326236,23.0764387 C29.3326236,21.3754835 30.8089723,20.8429889 33.0070909,20.8429889 C35.1042604,20.8429889 35.7629385,20.9363635 37.8550596,20.9363635 C40.5654829,20.9363635 41.1383572,20.1716916 43.2557165,18.6372996 C44.8355327,17.4915549 47.6166186,16.0126839 48.9516385,16.0126839 C49.4286121,16.0126839 50.2614241,16.1540089 50.2614241,17.602597 C51.4147433,17.602597 52.4469235,17.1306719 52.8986588,16.1691541 C53.4235827,15.0486439 53.9535551,14.480818 54.9302143,14.2006905 C55.5384198,14.0265566 56.1996202,13.9180406 56.7623976,13.45116 C57.6053026,12.7521023 57.9409512,11.6972099 58.4229731,10.7457851 C58.7510511,10.0946777 59.144743,9.4915206 59.8109919,9.0801611 C60.4822891,8.66375703 61.1863914,8.57038245 61.9031129,8.57795316 C62.5895516,8.58804614 63.2860832,8.68899142 63.9800926,8.68899142 C65.6659025,8.68899142 66.8974549,7.22273954 67.6848388,7.22273954 C68.103769,7.22273954 68.1769538,7.57100729 68.1769538,7.82085204 C68.1769538,8.88331897 68.5479336,9.23663128 69.4312183,9.23663128 C70.8722357,9.23663128 73.5498502,8.15902295 74.7385006,7.85618327 C75.3769889,7.69466852 76.0028581,7.64924431 76.6211566,7.64924431 C77.9915077,7.64924431 79.3214831,7.8763731 80.6640776,7.58110413 C81.8804886,7.31611797 82.180806,6.87952407 83.4603087,6.5993965 C88.6691642,5.45112571 94.0395345,4.79749601 99.2080103,3.42966712 C101.991618,2.69275583 104.808036,2.07445736 107.644642,1.55458188 C110.715949,0.989278327 113.809967,0.535016888 116.903986,0.156466331 C117.817553,0.0454242184 118.695789,0 119.556362,0 Z M30.7155669,84.9038561 C30.2714023,84.9038561 29.2896947,85.668528 28.4265999,86.0697906 C27.2909482,86.599763 26.1325845,86.8647491 26.1325845,87.6016604 C26.1325845,88.1921983 26.5666561,88.1921983 26.5666561,89.0552932 C26.5666561,89.8578185 25.7464632,91.0388944 25.2316361,91.9095599 C24.868227,92.5202877 23.2783139,95.7152553 21.4738911,99.0692115 C20.4442331,100.982154 19.29344,102.577116 18.2789235,103.889423 C16.981757,105.570189 15.9091971,106.789122 15.5962606,107.619408 C15.4448389,108.023197 15.5281204,108.659163 15.5281204,109.408693 C15.5281204,110.758858 15.0284348,112.480003 14.2486216,113.875593 C13.4713306,115.266134 13.2795331,115.9021 13.0397851,117.426395 C12.9539813,117.963938 12.403823,119.606846 11.9571322,121.391083 C11.6341027,122.678156 11.3640682,124.040937 11.3640682,125.110974 C11.3640682,126.314766 11.9848928,126.7236 12.5224358,126.7236 C13.3451471,126.7236 13.5419931,125.365864 13.8271691,123.955133 C14.0744877,122.731151 14.4530382,121.466794 14.5893147,121.022629 C15.3110846,118.685712 16.3028852,116.396741 17.3653522,114.14815 C18.195638,112.386629 19.071352,110.64782 19.8965932,108.924153 C20.9338219,106.758843 21.9735729,104.593534 23.0234207,102.430746 C24.012699,100.394142 25.0095481,98.3625869 26.0215385,96.3386022 C27.0108168,94.3625678 28.0354264,92.3966303 29.2215507,90.531638 C30.0392213,89.2470907 31.3338654,87.7480299 31.3338654,86.1606429 C31.3338654,85.6407674 31.2329201,84.9038561 30.7155669,84.9038561 Z M90.0394884,117.651005 C88.9568355,117.651005 87.1675541,118.317254 85.5448359,119.018834 C84.0508235,119.662371 82.698136,120.338713 82.1681637,120.5507 C81.1107452,120.974675 79.2608944,121.249754 78.3826582,121.974046 C77.9359674,122.345026 77.5725583,122.791717 77.5725583,123.228311 C77.5725583,123.80623 78.2236657,123.980371 78.6097869,123.980371 C79.9700451,123.980371 81.3908728,123.483208 82.8217934,122.839671 C84.3814199,122.140613 85.9511432,121.264899 87.460297,120.671835 C87.8590374,120.515369 88.8205551,120.227671 89.6483187,119.836501 C90.4003714,119.47814 91.0388597,119.036498 91.0388597,118.524193 C91.0388597,117.926085 90.6527385,117.651005 90.0394884,117.651005 Z M14.528753,95.7278783 C13.7110824,95.7278783 12.961552,96.876149 12.3407274,98.2364072 C11.591197,99.8843637 11.0334641,101.840208 10.7810971,102.445888 C9.52935486,105.459151 8.64607023,108.515316 7.68707472,111.627002 C7.39180574,112.585997 6.97540167,113.681269 6.61451866,114.794209 C6.21325599,116.038376 5.8877042,117.30526 5.8877042,118.428293 C5.8877042,119.526091 6.203163,120.57089 6.70789708,120.57089 C7.45490135,120.57089 8.16657825,118.948172 8.7394525,117.146271 C9.36027711,115.192949 9.81706083,113.025117 9.97857558,112.464862 C10.5741619,110.382834 10.7508181,108.644025 11.4953001,106.675562 C12.2044509,104.802999 13.476379,102.695732 14.2864789,100.797931 C14.5918447,100.076161 15.2833318,98.1455549 15.2833318,96.8887682 C15.2833318,96.2881334 15.2126693,95.7278783 14.528753,95.7278783 Z M91.1675732,113.209336 C90.3044784,113.209336 89.1663045,113.799874 88.076077,114.289467 C86.2287484,115.114708 84.5202225,116.114083 84.5202225,116.848472 C84.5202225,117.055415 84.8129692,117.050367 84.9593425,117.050367 C85.5044563,117.057934 87.3189759,116.328593 88.9770292,115.657296 C90.5896544,115.003666 92.0508579,114.41565 92.0508579,113.658549 C92.0508579,113.330471 91.7076385,113.209336 91.1675732,113.209336 Z M28.4341706,98.7234738 C27.70483,98.7234738 27.0486742,99.8061267 26.6953619,100.820643 C26.4152343,101.625695 26.3269043,102.387844 26.5414178,102.53674 C26.9527773,102.508979 27.5054618,102.034528 27.9849576,101.431371 C28.5401643,100.727269 28.996948,99.843984 28.996948,99.2812066 C28.996948,98.945558 28.8354333,98.7234738 28.4341706,98.7234738 Z M23.1369928,79.8312771 C22.1603336,79.8312771 21.2492884,80.8155071 20.4820943,82.0495817 C19.3893446,83.8035319 18.5817708,86.0622161 18.2637898,86.7259426 C17.9634724,87.3543379 17.5975409,87.8287892 17.2568439,88.2931436 C16.787441,88.9265835 16.3659886,89.5398336 16.2271859,90.4887322 C16.1565234,90.9732765 16.0000571,91.8464681 16.0000571,92.666661 C16.0000571,93.761933 16.2700917,94.6654152 17.2013267,94.6654152 C17.584918,94.6654152 17.6858632,94.3600494 17.7111015,93.9814988 C17.7413843,93.5903291 17.6909117,93.1209263 17.7994276,92.833228 C18.0644138,92.1341702 19.0234093,91.6445776 19.4171013,91.1524626 C20.411428,89.9032466 21.2063826,88.396615 22.0820966,87.0514983 C22.437935,86.5038622 23.1571826,85.5322476 23.7653881,84.4672584 C24.3306917,83.4805024 24.8000945,82.4155131 24.8000945,81.5397992 C24.8000945,80.3940546 23.9193322,79.8312771 23.1369928,79.8312771 Z M28.9591099,73.451431 C27.9471195,73.451431 26.1199807,75.2129519 26.1199807,76.1492353 C26.1199807,76.4798355 26.2865439,76.7069643 26.7963264,76.7195834 C27.8234582,76.7422994 29.4108452,74.7889771 29.4108452,73.8955995 C29.4108452,73.6255649 29.2846617,73.451431 28.9591099,73.451431 Z M45.0954589,64.6236331 C44.3206903,64.6236331 42.4506496,66.9100779 41.8626339,67.6747497 C40.3231935,69.6861153 39.2481113,71.0817047 38.5086777,72.1113627 C37.2998413,73.7946504 36.9843825,74.491182 36.9843825,75.2810921 C36.9843825,75.566268 37.1862769,75.9321995 37.592588,75.9321995 C38.4052101,75.9321995 39.2657827,74.9025415 39.9724111,73.812314 C40.605851,72.8306064 41.1156335,71.8034707 41.3478107,71.4299686 C41.8601155,70.6072534 42.6550701,69.9510976 43.4071228,69.2343761 C44.4620152,68.224908 45.4361521,67.0943047 45.4361521,65.2091226 C45.4361521,64.7927186 45.3074463,64.6236331 45.0954589,64.6236331 Z M49.4841254,41.2014412 C49.0828628,41.1736807 48.5453197,41.4109063 48.1768622,41.7995499 C47.1976768,42.8367786 46.5642369,44.4822127 45.5598172,45.6229128 C44.3232203,47.0260729 43.2506604,48.527656 42.1553883,50.0443806 C40.8304614,51.87909 39.4045892,53.6507077 38.0266634,55.4526082 C37.113096,56.6488293 36.2222407,57.8601919 35.3969994,59.1144564 C34.8468411,59.9472684 34.506144,60.8078409 34.1503056,61.6557943 C33.7540875,62.6021707 33.3402057,63.5334057 32.6007721,64.3889298 C31.5458798,65.6103853 30.5591237,66.9958817 30.5591237,68.1239627 C30.5591237,68.8028307 30.9502934,69.2596144 32.0354724,69.2596144 C33.0121239,69.2596144 34.1553463,67.8413129 35.202668,66.0696952 C36.2398966,64.3132189 37.1837508,62.211001 37.7768148,60.8027925 C38.3648305,59.4046808 39.0790297,58.1176073 39.8638913,56.8784843 C40.9061684,55.2280055 42.0695806,53.6582822 43.2178514,52.0128481 C44.4266878,50.2841323 45.23931,48.4645643 46.2967285,46.7459454 C46.816604,45.9030404 47.3945228,45.0828475 48.108722,44.3080789 C48.5831732,43.7957741 50.0393321,42.6121721 50.0393321,41.8071206 C50.0393321,41.4058579 49.8046326,41.2216311 49.4841254,41.2014412 Z"></path></clipPath><clipPath id="i3"><path d="M106.655349,0 C111.581554,0 116.485044,0.42650091 121.153834,1.40063783 C125.519785,2.31168299 129.868068,3.505378 134.150737,4.74702337 C134.655471,4.895919 137.169048,5.34260973 137.131195,6.15270962 C137.108483,6.60697106 136.775356,6.75839282 136.318572,6.75839282 C135.392386,6.75839282 133.961465,6.13252364 133.613198,6.12495294 C134.632759,7.18237145 136.273144,7.31864795 137.476936,8.08584205 C138.504072,8.73947176 139.225842,9.54957164 140.336255,10.0871147 C141.022694,10.4227633 141.540047,10.6044679 141.918598,10.7382221 C142.529325,10.9577802 142.769073,11.0486325 142.769073,11.4549436 C142.769073,11.964726 142.493994,12.7066858 142.493994,13.2618925 C142.493994,13.8751425 142.839736,13.9382343 142.839736,14.6549557 C142.839736,15.4776709 141.229633,16.2827224 140.699661,16.5805136 C137.994286,18.0947159 136.634027,18.720585 133.41887,18.7054436 C132.709719,18.7003952 132.030851,18.5716894 131.243467,18.5716894 C130.955769,18.5716894 130.468703,18.7054436 130.468703,19.015854 C130.468703,19.2656988 130.612554,19.3843116 130.612554,19.7881004 C130.612554,20.1868408 129.73684,20.5477238 128.959549,20.5780066 C128.040933,20.6108155 126.180989,20.4593938 125.517262,20.4593938 C120.868662,20.4593938 116.37148,21.2568745 111.644646,22.5388995 C108.717187,23.3338542 105.272378,23.9597234 101.82757,24.6158792 C98.3221918,25.2846503 94.8142916,25.9811819 91.8464566,26.9124169 C91.0111223,27.1723547 89.5499188,27.6064263 89.5499188,28.5351351 C89.5499188,28.9464946 89.7694769,29.3124261 89.7745253,29.9938163 C89.7846183,32.0834151 88.2880836,33.6607091 86.9883949,35.248096 C85.0628332,37.6001587 83.2457913,40.0178354 81.4388424,42.4380343 C79.7252719,44.7320498 78.016746,47.0285914 76.2249385,49.2746565 C75.1069543,50.6778166 73.9435421,52.0456455 72.7700369,53.4059036 C71.8539434,54.4658444 69.5447865,56.520112 69.5447865,57.6532414 C69.5447865,58.1226442 69.8350071,58.2917297 70.271601,58.2917297 C71.2533086,58.2917297 73.1082079,57.5194871 73.8804504,57.2772131 C79.8539777,55.4172692 86.0596822,53.7188402 92.2805282,52.9566906 C94.589685,52.6740408 96.6262889,52.5655248 98.8824508,52.5655248 C100.290659,52.5655248 101.772053,53.2418666 101.759434,53.9661588 C101.759434,54.1226251 101.668581,54.2790914 101.454068,54.4305132 C102.486248,54.7005478 105.254715,55.8513409 106.81939,56.608442 C108.437063,57.3907813 108.838326,57.7844733 109.035172,58.5087655 C109.168926,58.9983581 109.380913,59.6444171 109.572711,60.123913 C109.642533,60.2997284 109.766193,60.4505875 109.899667,60.598923 L110.101736,60.8223378 C110.30016,61.049468 110.471139,61.296157 110.466092,61.6381152 C110.455999,62.347266 109.234544,62.960516 108.346211,64.144118 C106.45598,66.6677884 106.614973,67.0791479 104.111492,68.1340403 C103.175209,68.5277323 100.878667,68.9971351 100.878667,69.8854681 C100.878667,70.8873656 101.860375,70.7510891 101.860375,71.5435214 C101.860375,73.1586689 94.4508786,75.1700345 93.2571835,75.4981125 C92.2956657,75.7630986 91.2761046,76.0053727 90.2716849,76.3006416 C88.9745185,76.6817145 87.7000641,77.1536396 86.6098367,77.8880286 C85.7820731,78.4457615 85.2066766,79.4628003 84.313299,79.8968719 C84.0760733,80.0104363 83.8413738,80.050816 83.6091966,80.0558644 C83.4981555,80.0571265 83.3874296,80.050029 83.2769402,80.0386727 L82.6162108,79.9522384 L82.2867919,79.932207 C80.8205401,79.932207 78.8116968,81.850198 76.9870841,82.6779616 C74.8091554,83.6672399 72.6009438,84.3965805 70.3018799,85.0401173 C65.2166856,86.4659895 61.2040513,89.0275134 56.4368381,91.0994484 C54.4481846,91.9650655 52.8103211,92.4092301 51.0185136,92.4092301 C48.6513096,92.4092301 46.9957824,90.7385616 45.446249,90.7385616 C43.5762083,90.7385616 42.93772,92.4521321 42.1856673,93.6962997 C40.9162614,95.7985176 39.6039536,97.8502629 38.2058419,99.8691992 C33.047459,107.329168 28.2322955,114.579672 25.9811819,123.465517 C25.7136735,124.517887 24.9919036,127.738089 24.9919036,129.158917 C24.9919036,130.746304 26.1149362,131.087001 27.3692007,131.087001 C31.8129954,131.087001 36.1194677,129.715573 40.3100196,128.24018 L41.4500395,127.836175 L42.5844077,127.432727 C51.5030579,124.273091 60.5731298,120.795473 69.1914626,116.898926 C73.1082002,115.127308 77.0350306,113.388499 80.9845733,111.705212 C86.6426418,109.292583 92.3461384,106.99352 98.1303904,104.86859 C100.815576,103.88436 105.201716,101.544916 108.257881,101.544916 C109.216876,101.544916 110.042118,101.855327 110.042118,102.486244 C110.042118,102.811796 109.908363,103.208014 109.219403,103.692558 C108.288168,104.348714 107.066712,104.853448 105.812448,105.28752 C104.661654,105.68626 103.488149,106.021909 102.4913,106.352509 C102.03199,106.506453 101.544924,106.546833 101.06038,106.546833 C100.469842,106.546833 99.881826,106.503931 99.344283,106.503931 C98.3625753,106.503931 98.3272441,107.558823 97.5979035,107.558823 C97.0855987,107.558823 97.0855987,107.341787 96.2578352,107.341787 C94.8723387,107.341787 92.7726431,108.197311 91.5814704,108.649047 C90.8268916,108.934223 88.1972275,110.082494 88.1669447,110.693221 C88.1543256,110.915305 88.4824035,111.064201 89.3581174,111.081869 C88.992186,112.023197 85.9082605,113.035187 85.1208766,113.403645 C82.8722853,114.453492 80.8735388,115.775897 78.5240023,116.63647 C77.3277812,117.073064 76.1921295,117.557608 75.0943314,118.105244 C73.6836005,118.806824 72.3309131,119.606827 70.9782256,120.538062 C70.3245959,120.984753 69.7441509,121.512199 69.1283747,121.933651 C68.5782164,122.30968 67.9977715,122.602426 67.3163813,122.683186 C67.084204,122.710946 66.5870407,122.751326 66.1151155,122.819466 C65.5952401,122.892651 65.1233149,123.064258 65.1233149,123.56647 C65.1233149,123.770887 65.3302577,123.851646 65.6961892,123.831456 C66.8662542,123.7741 69.6542838,122.713533 72.4538321,121.515073 L73.1251223,121.225239 C76.2511655,119.864456 79.2304475,118.417539 79.8060273,118.100199 C82.0975205,116.833316 84.250211,115.811228 86.7259311,114.975894 C87.6723075,114.657913 90.3246836,113.237085 91.8035546,113.232037 C92.048351,113.232037 92.2603384,113.26989 92.4294238,113.35822 C91.6798934,115.228261 88.5833488,116.452243 86.6956444,117.184106 C84.0558835,118.208715 81.4363124,119.276227 78.7940292,120.295788 C77.388343,120.838375 76.0003243,121.41882 74.6299731,122.03207 C72.810405,122.844693 71.0185975,123.720407 69.2545506,124.649115 C68.3965042,125.100851 65.6179445,126.226409 65.6179445,126.980988 C65.6179445,127.220736 65.8475994,127.495815 66.3069092,127.495815 C67.5182718,127.495815 68.8558179,126.562058 69.9788504,126.173414 C71.101883,125.782245 72.3586697,125.782245 73.4160882,125.272462 C74.7006355,124.651638 76.282978,123.104627 77.433771,123.104627 C78.5391399,123.104627 79.187725,123.627028 80.1542912,123.611887 C80.5606023,123.604316 81.0325275,123.508415 81.6609228,123.240907 C82.9101388,122.710935 84.6489476,121.597995 84.3183474,119.87685 C85.1562078,119.891991 85.3303417,120.873699 86.1909142,120.898937 C86.9656828,120.921649 87.7429738,120.331111 88.424364,120.03332 C90.8546598,118.968331 93.2773849,117.905864 95.7228221,116.881254 C97.3657302,116.194816 99.0464956,115.609322 100.689404,114.940551 C101.231991,114.718467 102.074896,114.531714 102.529158,114.120355 C102.662912,113.996693 102.738623,113.832656 102.738623,113.650952 C102.733574,113.497008 102.670483,113.330444 102.53168,113.166407 C103.276162,112.611201 104.65661,112.684385 105.610557,112.225076 C107.041478,111.538637 107.308986,109.625694 108.015615,108.747458 C108.636439,107.975216 109.779662,107.500764 111.59923,106.731044 C113.189143,106.059747 114.806816,105.491921 115.437734,105.491921 C116.096412,105.491921 116.33616,105.819999 116.962029,107.185306 C117.269917,107.854077 117.751939,108.452185 117.751939,109.443986 C117.751939,109.726636 117.688847,110.034524 117.519762,110.395407 C116.873703,111.758187 115.165177,113.971447 114.15066,115.119718 C112.96201,116.462313 112.091345,118.160742 110.756325,119.354437 C109.163889,120.782835 107.970194,122.04467 106.594795,123.697675 C103.692574,127.180341 99.8338833,129.691392 95.78844,131.942506 C91.9827446,134.059865 88.0155345,135.94757 84.5202495,138.196161 C80.8104548,140.581028 77.5549215,142.983564 73.3706756,144.565906 C69.9611983,145.858024 67.4728591,147.776015 64.1088061,149.38107 C59.0867035,151.781079 53.5119166,153.878248 47.8437512,155.132513 C44.3232318,155.912326 40.7673812,156.366587 37.2872414,156.366587 C34.637376,156.364088 31.4979294,154.875124 30.6222155,154.420863 C29.0903457,153.628431 29.0903457,152.674483 27.9673131,152.674483 C27.4550084,152.674483 26.8543736,152.818334 26.331972,152.818334 C24.6840155,152.818334 24.2146127,151.54388 21.7388926,150.001917 C19.5937728,148.661849 17.4738912,147.581718 15.6593716,145.825242 C13.7514774,143.98044 12.0454776,141.90346 10.9577763,139.465594 C9.89026484,137.075677 9.44610023,134.458632 8.16407522,132.15452 C6.83409985,129.759556 4.9918197,128.92927 3.24291798,127.124847 C2.70285267,126.56964 2.45048563,125.898343 2.30916071,125.181622 C2.10221789,124.126729 2.14511982,122.970888 1.90537191,121.936181 C1.38297029,119.700209 0,117.65099 0,115.288834 C0,113.247186 0.527446185,110.955693 0.807573751,108.921615 C1.43849135,104.363867 3.17982237,99.5840347 4.99939041,95.3821251 C9.08773565,85.9360287 15.0435993,77.3429303 20.7521405,68.8204943 C26.5767722,60.1214022 32.6865798,51.5636351 39.3490681,43.4777968 C41.2165826,41.2090158 43.3642248,39.1673674 45.1232233,36.8127825 C46.6778052,34.7307544 48.2021004,33.7793296 48.2803336,31.9092889 C48.3610929,29.9458737 46.5364803,27.9572202 45.8626607,26.1805579 C45.5850555,25.4461689 45.5042962,24.8278704 45.5042962,24.2373325 C45.5042962,23.3893791 45.6708593,22.5969467 45.6708593,21.5950493 C45.6708593,19.7048188 43.2859916,18.9275278 43.2859916,17.3199511 C43.2859916,16.6637952 43.7882034,16.4694715 44.4317401,16.4694715 C45.3225954,16.4694715 45.963606,16.8303545 46.9579328,16.8303545 C48.8077836,16.8303545 50.2185144,14.2864943 52.14155,13.4814429 C54.4355655,12.5249735 56.7018204,11.4524136 59.0286448,10.5741774 C68.87853,6.85933424 79.0186357,3.48518818 89.4060639,1.60505452 C94.9505681,0.600634783 100.820624,0 106.655349,0 Z M32.7622792,78.8394496 C30.919999,78.8394496 29.6556415,81.615487 28.6537441,83.0665975 C27.1975852,85.1789083 25.6606709,87.2054153 24.348363,89.4136269 C21.882736,93.5625417 19.2051216,97.7215494 16.9994323,102.009267 C15.0082565,105.875532 12.7344309,110.473659 11.6341104,114.531722 C11.3943625,115.409958 10.6927825,119.568966 10.6927825,122.857308 C10.6927825,125.189181 11.1016158,127.119791 12.461874,127.119791 C13.7186569,127.119791 14.0719692,125.74944 14.3949987,123.533657 C14.6877454,121.522292 14.9552539,118.054767 15.8562061,115.041504 C17.3325548,110.102679 19.6089065,106.185942 22.1098648,101.683715 C24.5855848,97.2294383 27.4777128,93.0300509 30.0695233,88.648959 C30.1196556,88.5642455 30.1888012,88.4536999 30.2735472,88.3207686 L30.4628287,88.0260795 C31.57248,86.3061096 34.1982482,82.3005621 34.1982482,80.1921371 C34.1982482,79.3719442 33.8020301,78.8394496 32.7622792,78.8394496 Z M35.3490336,62.1554645 C32.7976027,64.6210916 30.5792981,66.9252039 28.5048408,69.8829459 C24.1792699,76.0482708 20.4694752,83.3568219 15.603839,89.009842 C14.8618793,89.8754591 13.7666073,90.6956519 13.0473597,91.6041748 C12.6107658,92.1518108 12.3129745,92.7322558 12.3129745,93.3732664 C12.3129745,93.9764234 12.6031951,94.246458 12.6031951,94.7259539 C12.6031951,95.7127099 11.5281129,96.732271 11.0410464,97.6887404 C10.5489314,98.6578289 7.14197639,107.387204 7.15456055,110.279332 C7.15456055,110.854728 7.29339816,111.205522 7.61642766,111.205522 C8.0050712,111.205522 8.45428422,111.102051 8.99182724,109.784695 C9.21643375,109.23201 9.45618167,108.469861 9.71359713,107.412442 C10.2132828,105.353126 10.5665951,104.348706 11.5760632,102.536713 C12.1085579,101.582766 12.3584026,100.593487 12.757143,99.6748716 C13.2442095,98.5493129 14.3470522,97.1890548 15.0057304,96.0735929 C15.7098338,94.8827816 16.4556555,93.7276617 17.2133967,92.5822096 L18.7359424,90.296485 C19.2428691,89.5337332 19.746264,88.7675674 20.237298,87.990277 C21.913015,85.3328524 23.5004019,82.5517666 25.0575061,79.8211534 C26.415242,77.4438563 28.530079,75.6041023 29.8196747,73.2091377 C30.907376,71.1876791 31.937034,69.4539188 32.8506015,67.4804067 C33.5269433,66.0192033 35.6165421,63.8993217 35.3490336,62.1554645 Z M50.3245081,56.6437732 C48.4101226,56.8189875 45.1811629,59.6919545 43.736667,61.1147303 L43.4724789,61.3787206 C43.3531995,61.4998188 43.2538308,61.6036497 43.1774718,61.6860655 C41.733932,63.2431697 40.1086877,65.262106 38.962943,67.0614842 C38.5894409,67.6469776 37.9938545,68.7170152 37.9711424,69.4463558 C37.9585233,69.8955688 38.1604177,70.2135499 38.7610524,70.2135499 C39.6796606,70.2135499 41.1030105,68.679154 41.9635831,68.2349894 C42.8821989,67.7605382 43.1648488,67.8841994 43.7881957,67.5359316 C44.3509731,67.2229951 44.6361491,66.455801 44.6916701,65.7188897 C44.7345721,65.1258257 44.7522396,64.5125756 45.1560284,63.9018478 C45.9408901,62.7081528 46.7030396,62.6728216 47.5762312,61.4841711 C48.4443745,60.2980468 48.7951645,58.1226442 50.3245081,56.6437732 Z M96.527862,57.244408 C93.0855758,57.244408 87.5486424,58.5138139 86.7259272,58.6576649 C85.4464245,58.8797492 82.6830062,59.3971024 81.486785,59.9245486 C80.3536557,60.4242342 79.1069619,61.2469494 79.1069619,62.0343333 C79.1069619,62.4229768 79.5460819,62.5415897 80.1694288,62.5138291 C81.62811,62.4482074 83.8287508,61.5094017 85.7063622,60.9819555 C87.8792426,60.3712277 90.0369815,59.7958312 92.2073396,59.3390475 C93.2041886,59.1295824 94.5644468,59.0362078 95.6571965,58.8595516 C96.7045182,58.6879439 97.5070435,58.4355769 97.5070435,57.9207498 C97.5070435,57.5598668 97.2042039,57.244408 96.527862,57.244408 Z M103.382156,4.68897618 C100.878675,4.68897618 99.0742522,5.02714708 99.0212535,6.03409295 C99.0212535,6.31422052 99.3770919,6.59687037 100.252806,6.59687037 C102.226318,6.59687037 104.982166,5.88771961 106.799207,5.92557312 C108.659151,5.96342664 110.297015,6.36721544 112.479988,6.75585898 C114.198607,7.06122479 116.17969,7.33630394 118.37276,7.33630394 C120.399267,7.33630394 122.430822,6.13503823 122.430822,5.32241606 C122.430822,5.1457599 122.281927,5.07509744 122.042179,5.07509744 C121.148801,5.07509744 118.978443,5.75396539 117.908406,5.75396539 C116.22764,5.75396539 114.534256,5.48393081 112.270523,5.21642236 C110.042122,4.9514362 107.255991,4.68897618 103.382156,4.68897618 Z"></path></clipPath><clipPath id="i4"><path d="M18.3142662,122.216067 C19.1849318,122.201152 19.1723126,122.94816 19.2530719,123.652263 C19.3262567,124.273087 19.4701077,124.85858 20.3559147,124.85858 C21.3502414,124.85858 22.2310038,124.323564 22.9754857,124.323564 C23.853722,124.323564 24.3105057,124.644071 24.7269098,125.050382 C25.1836935,125.492024 25.5925268,126.034612 26.4581439,126.360164 C27.3994719,126.713476 28.3660381,126.731143 29.3250336,126.849756 C30.0745641,126.943131 30.8165238,127.097075 31.5408159,127.52105 C32.5528064,128.114114 33.4562808,129.075632 34.2865667,130.10529 C35.0260003,131.021383 35.7073905,131.99552 36.3584979,132.818235 C37.3351571,134.05231 37.9156021,135.109728 37.9156021,136.363993 C37.9156021,138.057377 36.424112,140.550765 34.7004446,142.90535 C33.3099036,144.805673 31.7654186,146.617667 30.7357606,147.8366 C29.4537356,149.355851 27.7401651,151.023997 26.0745411,152.391826 C24.080843,154.027163 22.1578075,155.230955 21.1281495,155.230955 C20.4063988,155.230955 19.2000847,154.875113 18.4631734,154.786783 C17.4663244,154.66817 16.8732603,154.332521 15.7981781,153.850499 C13.8801871,152.989927 12.1565198,152.581093 10.6902679,151.01137 C9.35019953,149.577927 8.09088662,148.85868 6.58173281,147.763408 C4.93377636,146.567186 3.70979469,144.293361 2.6498539,142.617644 C0.709150761,139.546337 0,139.059271 0,138.208795 C0,137.22961 0.736911289,137.068095 1.07760833,136.053579 C1.70852593,134.181016 1.58991311,132.422017 2.53881179,130.536835 C3.34133712,128.941873 4.09338981,126.350063 5.70601503,125.436495 C7.13945796,124.628922 9.3224313,124.893908 10.9123444,124.583498 C12.8025749,124.21504 14.5363352,123.281283 16.3533771,122.695789 C16.8682042,122.531752 17.632876,122.226386 18.3142662,122.216067 Z M35.6121422,117.318874 C34.8726274,117.244895 34.8538252,116.561606 34.758488,115.932371 C34.6726841,115.372116 34.5263107,114.854763 33.7616389,114.849714 C33.4158973,114.849714 32.7471262,115.06675 32.3433374,115.06675 C31.5231445,115.06675 30.6979032,114.602396 30.0089423,113.905864 C29.30484,113.189143 28.7445848,112.227625 28.4846471,111.263581 C28.111145,109.883133 28.4240815,109.438968 27.3464731,108.376501 C26.8644512,107.90205 25.963499,107.513407 25.1685444,106.988483 C24.3332101,106.435798 23.6164886,105.734218 23.6164886,104.626327 C23.6164886,103.682473 24.3483515,102.819378 25.0272194,101.981518 C25.6152351,101.257226 26.1653934,100.550597 26.1653934,99.8288272 C26.1653934,98.5947526 25.4108146,97.0603605 25.4108146,95.8262858 C25.4108146,94.4205996 26.1123946,92.4597066 26.9098754,90.8773642 C28.0808583,88.5530621 28.3685566,85.3883811 29.7893842,83.2811148 C30.4051604,82.3700697 31.2455431,82.0268504 31.7881307,81.0602841 C32.4518572,79.8817305 32.8960218,78.4482876 33.5647929,77.2848754 C34.5035986,75.6571088 34.7660587,74.1126237 35.4070692,72.4091462 C35.9723728,70.905037 37.0626002,69.5043992 37.9156021,68.1592824 C39.3465227,65.9081689 40.3887998,63.5157304 41.398268,61.1031022 C42.5313974,58.3952049 43.6241471,55.6645917 45.1711583,53.0778296 C46.0342531,51.6368121 46.9856779,50.2286036 47.7781102,48.7472103 C48.2651768,47.8386874 48.2777959,46.92512 48.6109222,46.082215 C49.2494105,44.4670675 50.4304864,42.4657987 51.412194,41.0348781 C52.1692951,39.9320353 53.3200882,39.1269839 54.0645702,37.9862838 C54.8267198,36.8203493 54.7787694,35.5080415 55.409687,34.3673414 C55.9320886,33.4234873 56.9339861,32.9212755 57.6078056,32.0480838 C58.2488162,31.2203203 58.5819425,30.2133744 59.101818,29.3149484 C60.1920454,27.4348147 61.3327455,25.5950607 62.4482074,23.7300684 C63.6620922,21.7086098 64.8482165,19.6593907 65.9182542,17.5041779 C66.3725156,16.585562 67.0539058,15.7880813 67.7201546,14.9880782 C68.4823042,14.0719847 69.2242639,13.1508465 69.5826246,12.0480038 C69.6583355,11.8107781 69.4715825,11.4776518 69.4715825,11.2858542 C69.4715825,10.5716551 70.8091286,10.2738638 70.9277414,10.0492573 C71.0286867,9.86250431 70.9454051,9.57732832 70.9454051,8.50729069 C70.9454051,7.88899222 71.4501392,6.57415826 72.1592899,5.25175359 C73.146046,3.41452187 74.5315424,1.56214873 75.5182984,1.56214873 C76.3511104,1.56214873 77.3908614,1.73880489 78.1681523,1.73880489 C79.7605877,1.73880489 81.27479,1.17097905 82.8243234,0.817666739 C83.7883673,0.598108648 85.6155061,0 86.6401156,0 C87.6722959,0 88.17703,0.504734076 88.7372851,1.70095522 C89.0476955,2.36215563 89.5625226,2.54133792 89.8981712,2.54133792 C91.5259378,2.54133792 92.108905,2.24354666 92.994712,2.25868807 C93.4817785,2.26625877 93.9814642,2.36720405 94.6350939,2.66247302 C96.6212212,3.5634252 99.7682385,5.09529496 101.231968,6.72558772 C102.723458,8.39121172 103.084341,10.957784 104.573305,12.7470654 C105.691289,14.0896599 106.170785,15.5962914 106.170785,17.1937752 C106.170785,18.3117594 105.936086,19.4726493 105.517155,20.6512029 C105.143653,21.7060953 104.691918,23.4701422 104.000431,24.3912804 C103.366991,25.2316631 102.428185,25.8045373 101.741747,26.6474423 C100.966978,27.6013894 100.265398,28.6764716 99.422493,29.5723754 C98.632583,30.4102358 97.5095504,30.7433621 96.7726391,31.5610327 C96.0079673,32.4140345 95.7556003,33.8045755 95.0363527,34.7585226 C94.2565395,35.793229 93.3076408,36.6941812 92.5076377,37.7187907 C90.5442225,40.2273197 88.6691372,42.8115596 86.8394762,45.4311307 C84.7296876,48.4494421 82.6754201,51.5157001 80.6009627,54.5693428 C77.5523684,59.0665253 74.4608722,63.5359472 71.0942969,67.7883333 C69.1535937,70.238819 67.3895467,72.4823618 65.9863866,75.2836374 C64.6034163,78.0495819 63.3037276,80.8634728 61.7365266,83.5335165 C60.9138115,84.9291059 59.8690121,86.1051373 58.8216904,87.2685495 C57.8349344,88.3663476 56.8456561,89.4565751 56.0481753,90.7184103 C54.5264024,93.1234678 52.9920103,95.5108617 51.4399546,97.9083486 C49.4790616,100.939275 47.7276337,103.982821 45.8777829,107.036464 C45.3049086,107.980318 44.7244637,108.924172 44.126355,109.870548 C43.3591609,111.076863 42.5238266,112.202421 41.9761906,113.534919 C41.6910147,114.221358 41.5194069,115.03398 41.1711392,115.644708 C40.8632511,116.184773 40.4165603,116.565846 39.634221,116.565846 C39.283431,116.565846 38.9957327,116.399283 38.6222305,116.399283 C38.3118202,116.399283 37.7793256,116.63146 37.2291673,116.863637 C36.6840535,117.095814 36.1212761,117.325469 35.747774,117.325469 L35.748,117.325 Z M57.7920286,44.8531887 C56.9491236,44.8531887 55.0664638,47.9598264 54.8544764,48.2450023 C53.5396425,50.026713 52.7472101,51.505584 51.7655025,53.4614286 C50.6576114,55.6671179 49.3528742,57.7769064 48.0304696,59.8791243 C46.7307809,61.9434849 45.4159469,64.0002747 44.255057,66.1302531 C42.9048918,68.6059731 41.6228668,71.1145021 40.3408418,73.6255534 C39.1799518,75.9019051 38.0215881,78.1807792 36.8203223,80.4369411 C35.5206336,82.8748076 34.2916074,85.3606245 33.3149482,87.952435 C33.0095824,88.7625349 31.9673053,91.0086 31.9572123,92.2603422 C31.9572123,92.7827438 32.1313462,93.1335339 32.6184127,93.1335339 L32.616,93.133 L32.6846059,93.1180788 C32.9969914,92.9766496 33.1942909,91.9043888 33.315389,91.5581484 L33.3401864,91.4956704 C33.7919217,90.5442456 34.5162139,89.6432934 35.1017073,88.7600088 C36.456917,86.7057412 38.231057,84.8180369 39.2809048,82.5845871 C40.2247589,80.5782699 40.6790204,78.4129602 41.7793408,76.459638 C43.008367,74.2791869 44.3635768,72.1921104 45.5219406,69.9662313 C46.7257324,67.652026 47.8815739,65.3226793 49.0550791,63.0084741 C50.1402582,60.8633542 51.2431009,58.7308535 52.4115615,56.6286357 C53.5825444,54.5264178 54.5516329,52.184452 55.6368119,50.0115716 C56.0708835,49.1459545 58.1150581,46.226066 58.1201065,45.2065049 C58.1201065,44.9844207 58.0242058,44.8531887 57.7920286,44.8531887 Z M51.836165,68.8911453 C51.5055648,68.8911453 50.9074561,69.3176462 50.2184952,70.2135499 C49.6330018,70.9782217 49.13079,71.8236529 48.6689579,72.6968445 C48.0733715,73.8173548 47.5459253,74.9832892 46.9856702,76.0785613 C46.4153221,77.1915008 45.9282555,78.1555448 45.5017546,78.9959275 C44.9049802,80.1790837 44.4348256,81.1194787 44.0481426,81.8951899 L43.8258042,82.3414793 C43.6482941,82.6979597 43.4894945,83.0171732 43.3440118,83.3088792 C42.4001577,85.1991097 42.008988,85.9309726 40.6689197,88.1644224 C41.0903722,88.44455 41.4184501,88.5631628 41.6834362,88.5631628 C42.6626254,88.5631628 42.7534777,86.9429553 43.2582118,85.8350642 C43.7200439,84.8230737 44.0102645,84.36629 44.8885007,83.5006729 C45.5799878,82.821805 45.7086936,82.5845793 45.8803013,82.0697523 C46.2235206,81.0400943 46.1705219,80.2678518 46.7080649,79.2609059 C47.2708423,78.2085358 47.9219497,77.2495403 48.4418252,76.171932 C48.8178535,75.3971633 49.206497,74.6451106 49.6128081,73.9056771 C50.1604441,72.908828 50.7459375,71.9346911 51.3768551,70.9580319 C51.8942083,70.1580289 52.1112441,69.5775839 52.1112441,69.239413 C52.1112441,69.0097581 52.0128211,68.8911453 51.836165,68.8911453 Z M36.2297921,98.1556248 C37.4209648,96.9644521 38.5238076,95.8338488 39.2380067,94.5240633 C39.591319,93.8805266 39.8487345,93.1915656 39.974918,92.4344645 C40.0809117,91.8060692 40.0985793,91.1297274 40.0052047,90.3852454 C39.3717648,91.0186853 38.167973,92.7751616 37.2569278,94.4710684 C36.3761654,96.1139764 36.1389398,97.7013634 36.2297921,98.1581471 Z"></path></clipPath></defs><g clip-path="url(#i0)"><g transform="translate(0.09141541984348578 19.26412081929081)"><g clip-path="url(#i1)"><polygon points="0,0 176.63418,0 176.63418,154.370409 0,154.370409 0,0" stroke="none" fill="#529716"></polygon></g></g><g transform="translate(137.72870875678916 16.105847613220305)"><g clip-path="url(#i2)"><polygon points="0,0 144.722403,0 144.722403,151.447987 0,151.447987 0,0" stroke="none" fill="#529716"></polygon></g></g><g transform="translate(247.58621426274811 6.258349279533803)"><g clip-path="url(#i3)"><polygon points="0,0 142.839736,0 142.839736,156.366587 0,156.366587 0,0" stroke="none" fill="#529716"></polygon></g></g><g transform="translate(346.6993338354808 -0.44468967800341375)"><g clip-path="url(#i4)"><polygon points="0,0.444689678 106.170785,0.444689678 106.170785,155.230955 0,155.230955 0,0.444689678" stroke="none" fill="#529716"></polygon></g></g></g></svg>