<svg viewBox="0 0 40 34"><path d="M12.579 33.364c6.206.044 12.17-2.44 16.559-6.896 4.388-4.456 6.835-10.513 6.792-16.814 0-.361-.008-.72-.024-1.077A16.834 16.834 0 0040 4.262a16.171 16.171 0 01-4.714 1.311 8.341 8.341 0 003.609-4.61 16.31 16.31 0 01-5.212 2.031 8.124 8.124 0 00-9.86-1.641c-3.274 1.779-4.966 5.567-4.126 9.24-6.6-.337-12.749-3.504-16.916-8.712-2.178 3.808-1.065 8.68 2.542 11.125a8.053 8.053 0 01-3.717-1.042v.106c-.002 3.969 2.752 7.388 6.582 8.175a8.073 8.073 0 01-3.706.142c1.074 3.395 4.155 5.72 7.667 5.788A16.306 16.306 0 01-.002 29.622a22.976 22.976 0 0012.58 3.744"/></svg>
